<svg width="586" height="188" viewBox="0 0 586 188" fill="none" xmlns="http://www.w3.org/2000/svg">
<path d="M0.911844 43.8544C11.1803 39.836 16.4108 36.2115 24.4318 26.3395H37.9432L46.4504 2.8196C51.4274 1.99017 54.2745 2.55459 59.4614 7.32341C62.7755 33.4911 64.6334 48.1639 72.4725 58.8671H103.999C110.01 53.3956 112.863 50.22 115.509 43.8544C129.77 44.1866 140.617 58.7329 160.547 87.3912C181.636 95.1637 190.706 89.0873 207.086 78.884C214.866 97.4481 219.5 105.923 228.605 115.415H253.125C259.261 77.6069 263.365 59.1423 276.645 50.8603C284.152 75.0268 291.595 84.3301 307.171 97.9001H321.183L332.693 107.909L363.219 89.8934C374.909 84.6513 388.462 102.352 411.259 129.927C427.768 123.507 432.501 112.125 441.285 92.3955L457.298 95.398C470.106 71.3413 477.185 56.4961 491.327 50.8603C501.864 64.3083 506.118 81.3022 514.347 107.909C529.661 106.905 537.75 105.579 550.377 100.402C566.308 120.194 567.542 145.186 572.396 184.974L585.907 185.474" stroke="white" stroke-width="5"/>
</svg>
